<?xml version="1.0" encoding="utf-8"?>
<!-- Svg Vector Icons : http://www.onlinewebfonts.com/icon -->
<!DOCTYPE svg PUBLIC "-//W3C//DTD SVG 1.1//EN" "http://www.w3.org/Graphics/SVG/1.1/DTD/svg11.dtd">
<svg version="1.1" xmlns="http://www.w3.org/2000/svg" xmlns:xlink="http://www.w3.org/1999/xlink" x="0px" y="0px" viewBox="0 0 1000 1000" enable-background="new 0 0 1000 1000" xml:space="preserve">
<metadata> Svg Vector Icons : http://www.onlinewebfonts.com/icon </metadata>
<g><path d="M316.3,561.3H132.5C64.9,561.3,10,616.2,10,683.8v183.8C10,935.1,64.9,990,132.5,990h183.8c67.6,0,122.5-54.9,122.5-122.5V683.8C438.8,616.2,383.8,561.3,316.3,561.3z M377.5,867.5c0,33.8-27.5,61.3-61.3,61.3H132.5c-33.8,0-61.3-27.5-61.3-61.3V683.8c0-33.8,27.5-61.3,61.3-61.3h183.8c33.8,0,61.3,27.5,61.3,61.3V867.5z M521.7,521.7l254-254v201.7c0,16.9,13.7,30.6,30.6,30.6s30.6-13.7,30.6-30.6V193.8c0-16.9-13.7-30.6-30.6-30.6H530.6c-16.9,0-30.6,13.7-30.6,30.6s13.7,30.6,30.6,30.6h201.7l-254,254c-12,12-12,31.3,0,43.3c6,6,13.8,9,21.7,9C507.8,530.6,515.7,527.6,521.7,521.7z M867.5,10h-735C64.9,10,10,64.9,10,132.5v61.3v275.6c0,16.9,13.7,30.6,30.6,30.6s30.6-13.7,30.6-30.6V193.8v-61.3c0-33.8,27.5-61.3,61.3-61.3h735c33.8,0,61.3,27.5,61.3,61.3v735c0,33.8-27.4,61.3-61.3,61.3h-61.3H530.6c-16.9,0-30.6,13.7-30.6,30.6s13.7,30.6,30.6,30.6h275.6h61.3C935,990,990,935.1,990,867.5v-735C990,64.9,935,10,867.5,10z"/></g>
</svg>